<?xml version="1.0" encoding="UTF-8"?>
<!DOCTYPE svg PUBLIC "-//W3C//DTD SVG 1.1//EN" "http://www.w3.org/Graphics/SVG/1.1/DTD/svg11.dtd">
<svg xmlns="http://www.w3.org/2000/svg" version="1.1" width="51px" height="51px" style="shape-rendering:geometricPrecision; text-rendering:geometricPrecision; image-rendering:optimizeQuality; fill-rule:evenodd; clip-rule:evenodd" xmlns:xlink="http://www.w3.org/1999/xlink">
<g><path style="opacity:0.745" fill="#0d0e0d" d="M -0.5,-0.5 C 2.5,-0.5 5.5,-0.5 8.5,-0.5C 9.45773,0.961599 10.6244,2.29493 12,3.5C 12.6897,1.64977 13.8564,0.316435 15.5,-0.5C 18.5,-0.5 21.5,-0.5 24.5,-0.5C 23.9771,6.35841 20.3104,9.69174 13.5,9.5C 13.5,10.5 13.5,11.5 13.5,12.5C 16.916,11.8663 18.916,13.1996 19.5,16.5C 18.7261,20.4649 18.3927,24.4649 18.5,28.5C 21.9902,28.8494 24.3235,27.3494 25.5,24C 24.2921,21.7497 22.9587,19.583 21.5,17.5C 22.2888,15.5121 23.4555,15.1787 25,16.5C 29.2837,24.4902 33.4503,24.3235 37.5,16C 42.3653,16.44 45.8653,14.6066 48,10.5C 48.6708,9.74756 49.5041,9.41423 50.5,9.5C 50.5,10.8333 50.5,12.1667 50.5,13.5C 46.5,16.1667 46.5,18.8333 50.5,21.5C 50.5,22.8333 50.5,24.1667 50.5,25.5C 49.3994,26.8484 48.3994,28.3484 47.5,30C 48.3994,31.6516 49.3994,33.1516 50.5,34.5C 50.5,35.8333 50.5,37.1667 50.5,38.5C 49.3994,39.8484 48.3994,41.3484 47.5,43C 48.3994,44.6516 49.3994,46.1516 50.5,47.5C 50.5,48.5 50.5,49.5 50.5,50.5C 49.8333,50.5 49.1667,50.5 48.5,50.5C 47.3997,47.2597 45.2331,45.2597 42,44.5C 38.5868,44.9622 36.7534,46.9622 36.5,50.5C 32.8333,50.5 29.1667,50.5 25.5,50.5C 24.7586,47.659 23.0919,45.659 20.5,44.5C 18.4934,46.5332 16.4934,48.5332 14.5,50.5C 12.5,50.5 10.5,50.5 8.5,50.5C 7.87833,49.3734 7.04499,48.3734 6,47.5C 5.18079,41.3188 5.34745,35.3188 6.5,29.5C 7.14077,31.0423 8.14077,32.3757 9.5,33.5C 10.4933,28.8804 10.8266,24.2137 10.5,19.5C 9.5,19.5 8.5,19.5 7.5,19.5C 7.56745,20.9587 7.23411,22.2921 6.5,23.5C 4.8256,20.4456 4.3256,17.1123 5,13.5C 6.69946,12.5939 8.5328,12.2606 10.5,12.5C 10.5,11.5 10.5,10.5 10.5,9.5C 5.62294,10.2247 1.95627,8.55805 -0.5,4.5C -0.5,2.83333 -0.5,1.16667 -0.5,-0.5 Z"/></g>
<g><path style="opacity:1" fill="#98da9d" d="M 16.5,1.5 C 21.4058,0.954064 22.4058,2.45406 19.5,6C 17.6547,7.12799 15.6547,7.62799 13.5,7.5C 13.615,5.05322 14.615,3.05322 16.5,1.5 Z"/></g>
<g><path style="opacity:1" fill="#93d297" d="M 1.5,1.5 C 5.86577,0.846881 8.86577,2.51355 10.5,6.5C 5.90666,7.93649 2.90666,6.26982 1.5,1.5 Z"/></g>
<g><path style="opacity:1" fill="#ccd0dc" d="M 6.5,15.5 C 9.89838,15.1796 13.2317,15.513 16.5,16.5C 14.8333,16.8333 13.1667,17.1667 11.5,17.5C 9.3603,17.4439 7.69363,16.7773 6.5,15.5 Z"/></g>
<g><path style="opacity:0.955" fill="#e9e9e9" d="M 6.5,29.5 C 6.5,28.8333 6.5,28.1667 6.5,27.5C 7.83333,26.8333 7.83333,26.1667 6.5,25.5C 6.5,24.8333 6.5,24.1667 6.5,23.5C 7.23411,22.2921 7.56745,20.9587 7.5,19.5C 8.5,19.5 9.5,19.5 10.5,19.5C 10.8266,24.2137 10.4933,28.8804 9.5,33.5C 8.14077,32.3757 7.14077,31.0423 6.5,29.5 Z"/></g>
<g><path style="opacity:1" fill="#fdfdfd" d="M 13.5,19.5 C 15.4136,22.6843 16.0803,26.351 15.5,30.5C 13.5864,27.3157 12.9197,23.649 13.5,19.5 Z"/></g>
<g><path style="opacity:1" fill="#c8e8ca" d="M 38.5,18.5 C 43.3932,17.3138 46.7266,18.9805 48.5,23.5C 44.1667,31.5 39.8333,31.5 35.5,23.5C 36.7629,21.9713 37.7629,20.3046 38.5,18.5 Z"/></g>
<g><path style="opacity:1" fill="#b2b2b2" d="M 13.5,19.5 C 12.9197,23.649 13.5864,27.3157 15.5,30.5C 14.791,31.404 13.791,31.7373 12.5,31.5C 12.1832,27.2984 12.5166,23.2984 13.5,19.5 Z"/></g>
<g><path style="opacity:0.593" fill="#080808" d="M 6.5,25.5 C 7.83333,26.1667 7.83333,26.8333 6.5,27.5C 5.16667,26.8333 5.16667,26.1667 6.5,25.5 Z"/></g>
<g><path style="opacity:1" fill="#ccecce" d="M 27.5,24.5 C 32.6627,23.4735 35.6627,25.4735 36.5,30.5C 36.2395,32.1871 35.5728,33.6871 34.5,35C 29.3326,36.804 25.9993,35.1373 24.5,30C 25.7577,28.2591 26.7577,26.4258 27.5,24.5 Z"/></g>
<g><path style="opacity:1" fill="#99b29a" d="M 18.5,31.5 C 18.5,34.8333 18.5,38.1667 18.5,41.5C 20.1667,41.5 21.8333,41.5 23.5,41.5C 21.7354,42.4614 19.7354,42.7947 17.5,42.5C 17.185,38.6286 17.5184,34.9619 18.5,31.5 Z"/></g>
<g><path style="opacity:1" fill="#d0f1d2" d="M 18.5,31.5 C 25.4123,31.9895 27.079,35.3229 23.5,41.5C 21.8333,41.5 20.1667,41.5 18.5,41.5C 18.5,38.1667 18.5,34.8333 18.5,31.5 Z"/></g>
<g><path style="opacity:1" fill="#c9e8cb" d="M 38.5,31.5 C 43.3932,30.3138 46.7266,31.9805 48.5,36.5C 47.2485,38.0009 46.2485,39.6675 45.5,41.5C 40.3885,43.523 37.3885,41.8564 36.5,36.5C 36.9024,34.6998 37.5691,33.0332 38.5,31.5 Z"/></g>
<g><path style="opacity:1" fill="#fce8b5" d="M 8.5,45.5 C 8.5,42.1667 8.5,38.8333 8.5,35.5C 9.79105,35.7373 10.791,35.404 11.5,34.5C 12.7079,33.7659 14.0413,33.4326 15.5,33.5C 15.6657,37.8461 15.499,42.1794 15,46.5C 12.3891,49.2434 10.2224,48.91 8.5,45.5 Z"/></g>
<g><path style="opacity:1" fill="#887b60" d="M 11.5,34.5 C 10.791,35.404 9.79105,35.7373 8.5,35.5C 8.5,38.8333 8.5,42.1667 8.5,45.5C 7.51836,42.0381 7.18503,38.3714 7.5,34.5C 8.83333,34.5 10.1667,34.5 11.5,34.5 Z"/></g>
<g><path style="opacity:1" fill="#ccecce" d="M 27.5,37.5 C 35.4878,37.1317 37.8212,40.465 34.5,47.5C 29.3855,49.804 26.0522,48.304 24.5,43C 25.6394,41.2196 26.6394,39.3863 27.5,37.5 Z"/></g>
</svg>
